<svg width="120" height="120" viewBox="0 0 120 120" fill="none" xmlns="http://www.w3.org/2000/svg">
<rect opacity="0.25" x="1.51711" y="1.51711" width="116.966" height="116.966" rx="57.6501" stroke="#00609D" stroke-width="3.03421"/>
<path d="M60.502 55.1247C59.0764 55.1247 57.7093 55.691 56.7013 56.699C55.6932 57.707 55.127 59.0741 55.127 60.4997C55.127 61.9252 55.6932 63.2924 56.7013 64.3004C57.7093 65.3084 59.0764 65.8747 60.502 65.8747C61.9275 65.8747 63.2946 65.3084 64.3027 64.3004C65.3107 63.2924 65.877 61.9252 65.877 60.4997C65.877 59.0741 65.3107 57.707 64.3027 56.699C63.2946 55.691 61.9275 55.1247 60.502 55.1247ZM60.502 51.5413C62.8779 51.5413 65.1564 52.4852 66.8365 54.1652C68.5165 55.8452 69.4603 58.1238 69.4603 60.4997C69.4603 62.8756 68.5165 65.1542 66.8365 66.8342C65.1564 68.5142 62.8779 69.458 60.502 69.458C58.1261 69.458 55.8475 68.5142 54.1675 66.8342C52.4874 65.1542 51.5436 62.8756 51.5436 60.4997C51.5436 58.1238 52.4874 55.8452 54.1675 54.1652C55.8475 52.4852 58.1261 51.5413 60.502 51.5413ZM72.1478 51.0934C72.1478 51.6874 71.9118 52.257 71.4918 52.677C71.0718 53.0971 70.5022 53.333 69.9082 53.333C69.3142 53.333 68.7446 53.0971 68.3246 52.677C67.9046 52.257 67.6686 51.6874 67.6686 51.0934C67.6686 50.4995 67.9046 49.9298 68.3246 49.5098C68.7446 49.0898 69.3142 48.8538 69.9082 48.8538C70.5022 48.8538 71.0718 49.0898 71.4918 49.5098C71.9118 49.9298 72.1478 50.4995 72.1478 51.0934ZM60.502 46.1663C56.0694 46.1663 55.3455 46.1789 53.2833 46.2703C51.8787 46.3365 50.9362 46.5247 50.0619 46.8651C49.3306 47.1345 48.6693 47.565 48.1269 48.1246C47.5666 48.6668 47.1355 49.3282 46.8656 50.0596C46.5252 50.9375 46.337 51.8782 46.2725 53.2811C46.1794 55.2591 46.1668 55.9506 46.1668 60.4997C46.1668 64.9341 46.1794 65.6561 46.2707 67.7183C46.337 69.1212 46.5252 70.0654 46.8638 70.9379C47.1684 71.7173 47.5267 72.2781 48.1215 72.8729C48.7253 73.4749 49.2861 73.835 50.0565 74.1325C50.9416 74.4747 51.884 74.6646 53.2815 74.7291C55.2595 74.8223 55.9511 74.833 60.5002 74.833C64.9345 74.833 65.6566 74.8205 67.7188 74.7291C69.1199 74.6628 70.0623 74.4747 70.9384 74.1361C71.6697 73.8666 72.331 73.4362 72.8734 72.8765C73.4772 72.2745 73.8373 71.7137 74.1347 70.9415C74.4752 70.06 74.6651 69.1176 74.7296 67.7165C74.8227 65.7403 74.8335 65.0469 74.8335 60.4997C74.8335 56.0671 74.821 55.3433 74.7296 53.2811C74.6633 51.88 74.4734 50.934 74.1347 50.0596C73.8653 49.3283 73.4349 48.667 72.8752 48.1246C72.333 47.5643 71.6717 47.1332 70.9402 46.8633C70.0623 46.5229 69.1199 46.3348 67.7188 46.2703C65.7426 46.1771 65.051 46.1663 60.5002 46.1663M60.5002 42.583C65.3681 42.583 65.9755 42.6009 67.8872 42.6905C69.7935 42.7801 71.0943 43.0793 72.2356 43.5236C73.4181 43.9787 74.4142 44.595 75.4104 45.5894C76.3218 46.4848 77.0268 47.5683 77.4762 48.7643C77.9187 49.9055 78.2197 51.2063 78.3093 53.1144C78.3935 55.0243 78.4168 55.6317 78.4168 60.4997C78.4168 65.3676 78.3989 65.975 78.3093 67.8849C78.2197 69.7948 77.9187 71.092 77.4762 72.2351C77.0268 73.4311 76.3218 74.5146 75.4104 75.4099C74.5151 76.3213 73.4316 77.0263 72.2356 77.4757C71.0943 77.9183 69.7935 78.2193 67.8872 78.3088C65.9755 78.3931 65.3681 78.4163 60.5002 78.4163C55.6322 78.4163 55.0248 78.3984 53.1131 78.3088C51.2068 78.2193 49.9078 77.9183 48.7647 77.4757C47.5688 77.0263 46.4853 76.3213 45.5899 75.4099C44.6785 74.5146 43.9735 73.4311 43.5241 72.2351C43.0798 71.0938 42.7806 69.7931 42.691 67.8849C42.605 65.975 42.5835 65.3676 42.5835 60.4997C42.5835 55.6317 42.6014 55.0243 42.691 53.1144C42.7806 51.2045 43.0798 49.9073 43.5241 48.7643C43.9735 47.5683 44.6785 46.4848 45.5899 45.5894C46.4853 44.678 47.5688 43.973 48.7647 43.5236C49.906 43.0793 51.205 42.7801 53.1131 42.6905C55.0266 42.6063 55.634 42.583 60.502 42.583" fill="#00609D"/>
</svg>
