<svg width="22" height="22" viewBox="0 0 20 21" fill="none" xmlns="http://www.w3.org/2000/svg">
<path d="M4.58314 12.8326H16.6242C17.5526 12.8326 18.0168 12.8326 18.3864 12.6595C18.7119 12.507 18.9855 12.2622 19.173 11.9555C19.3858 11.6073 19.4371 11.1459 19.5396 10.2232L20.0759 5.3969C20.1072 5.11506 20.1228 4.97414 20.0775 4.86506C20.0377 4.76926 19.9666 4.6898 19.8758 4.63967C19.7724 4.58258 19.6306 4.58258 19.347 4.58258H4.1248M1.83301 1.83258H2.97741C3.21998 1.83258 3.34127 1.83258 3.43615 1.87871C3.51969 1.91932 3.58892 1.98436 3.63466 2.0652C3.68662 2.15702 3.69418 2.27807 3.70932 2.52017L4.54003 15.8117C4.55516 16.0538 4.56273 16.1748 4.61469 16.2666C4.66043 16.3475 4.72966 16.4125 4.81319 16.4531C4.90808 16.4992 5.02937 16.4992 5.27194 16.4992H17.4163M6.87467 19.7076H6.88384M15.1247 19.7076H15.1338M7.33301 19.7076C7.33301 19.9607 7.1278 20.1659 6.87467 20.1659C6.62154 20.1659 6.41634 19.9607 6.41634 19.7076C6.41634 19.4544 6.62154 19.2492 6.87467 19.2492C7.1278 19.2492 7.33301 19.4544 7.33301 19.7076ZM15.583 19.7076C15.583 19.9607 15.3778 20.1659 15.1247 20.1659C14.8715 20.1659 14.6663 19.9607 14.6663 19.7076C14.6663 19.4544 14.8715 19.2492 15.1247 19.2492C15.3778 19.2492 15.583 19.4544 15.583 19.7076Z" stroke="black" stroke-linecap="round" stroke-linejoin="round"/>
</svg>