<svg width="120" height="120" viewBox="0 0 120 120" fill="none" xmlns="http://www.w3.org/2000/svg">
<rect opacity="0.25" x="1.51711" y="1.51711" width="116.966" height="116.966" rx="57.6501" stroke="#00609D" stroke-width="3.03421"/>
<path d="M56.5 65.25L65.5825 60L56.5 54.75V65.25ZM76.73 51.5475C76.9575 52.37 77.115 53.4725 77.22 54.8725C77.3425 56.2725 77.395 57.48 77.395 58.53L77.5 60C77.5 63.8325 77.22 66.65 76.73 68.4525C76.2925 70.0275 75.2775 71.0425 73.7025 71.48C72.88 71.7075 71.375 71.865 69.065 71.97C66.79 72.0925 64.7075 72.145 62.7825 72.145L60 72.25C52.6675 72.25 48.1 71.97 46.2975 71.48C44.7225 71.0425 43.7075 70.0275 43.27 68.4525C43.0425 67.63 42.885 66.5275 42.78 65.1275C42.6575 63.7275 42.605 62.52 42.605 61.47L42.5 60C42.5 56.1675 42.78 53.35 43.27 51.5475C43.7075 49.9725 44.7225 48.9575 46.2975 48.52C47.12 48.2925 48.625 48.135 50.935 48.03C53.21 47.9075 55.2925 47.855 57.2175 47.855L60 47.75C67.3325 47.75 71.9 48.03 73.7025 48.52C75.2775 48.9575 76.2925 49.9725 76.73 51.5475Z" fill="#00609D"/>
</svg>
