<svg viewBox="0 0 20 21" fill="none" xmlns="http://www.w3.org/2000/svg">
<path d="M20.1666 19.2504V17.417C20.1666 15.7085 18.998 14.2729 17.4166 13.8659M14.2083 3.01689C15.552 3.56083 16.4999 4.87823 16.4999 6.41703C16.4999 7.95583 15.552 9.27323 14.2083 9.81717M15.5833 19.2504C15.5833 17.5419 15.5833 16.6877 15.3041 16.0139C14.932 15.1154 14.2182 14.4016 13.3198 14.0295C12.6459 13.7504 11.7917 13.7504 10.0833 13.7504H7.33325C5.6248 13.7504 4.77057 13.7504 4.09675 14.0295C3.19831 14.4016 2.4845 15.1154 2.11236 16.0139C1.83325 16.6877 1.83325 17.5419 1.83325 19.2504M12.3749 6.41703C12.3749 8.44208 10.7333 10.0837 8.70825 10.0837C6.68321 10.0837 5.04159 8.44208 5.04159 6.41703C5.04159 4.39199 6.68321 2.75037 8.70825 2.75037C10.7333 2.75037 12.3749 4.39199 12.3749 6.41703Z" stroke="black" stroke-linecap="round" stroke-linejoin="round"/>
</svg>