<svg width="15" height="17" viewBox="0 0 15 17" fill="none" xmlns="http://www.w3.org/2000/svg">
<g clip-path="url(#clip0_98_3628)">
<path d="M9.10993 10.2101C9.10993 10.2101 9.22154 10.0985 9.44475 9.87528C9.66797 9.65206 9.77958 9.22498 9.77958 8.59403C9.77958 7.96308 9.55636 7.42439 9.10993 6.97796C8.6635 6.53153 8.12481 6.30831 7.49386 6.30831C6.86291 6.30831 6.32422 6.53153 5.87779 6.97796C5.43136 7.42439 5.20815 7.96308 5.20815 8.59403C5.20815 9.22498 5.43136 9.76367 5.87779 10.2101C6.32422 10.6565 6.86291 10.8797 7.49386 10.8797C8.12481 10.8797 8.6635 10.6565 9.10993 10.2101ZM9.98493 6.10296C9.98493 6.10296 10.1561 6.27409 10.4983 6.61635C10.8406 6.95861 11.0117 7.61784 11.0117 8.59403C11.0117 9.57022 10.6695 10.4006 9.98493 11.0851C9.30041 11.7696 8.47005 12.1119 7.49386 12.1119C6.51767 12.1119 5.68731 11.7696 5.00279 11.0851C4.31827 10.4006 3.976 9.57022 3.976 8.59403C3.976 7.61784 4.31827 6.78748 5.00279 6.10296C5.68731 5.41843 6.51767 5.07617 7.49386 5.07617C8.47005 5.07617 9.30041 5.41843 9.98493 6.10296ZM11.7349 4.35296C11.7349 4.35296 11.7751 4.39314 11.8555 4.47349C11.9358 4.55385 11.976 4.70712 11.976 4.93331C11.976 5.1595 11.8956 5.35296 11.7349 5.51367C11.5742 5.67439 11.3808 5.75474 11.1546 5.75474C10.9284 5.75474 10.7349 5.67439 10.5742 5.51367C10.4135 5.35296 10.3331 5.1595 10.3331 4.93331C10.3331 4.70712 10.4135 4.51367 10.5742 4.35296C10.7349 4.19224 10.9284 4.11189 11.1546 4.11189C11.3808 4.11189 11.5742 4.19224 11.7349 4.35296ZM8.1769 2.96456C8.1769 2.96456 8.07347 2.96531 7.86663 2.9668C7.65978 2.96828 7.53553 2.96903 7.49386 2.96903C7.4522 2.96903 7.22452 2.96754 6.81083 2.96456C6.39714 2.96159 6.08315 2.96159 5.86886 2.96456C5.65458 2.96754 5.36737 2.97647 5.00725 2.99135C4.64714 3.00623 4.34059 3.03599 4.08761 3.08064C3.83464 3.12528 3.62184 3.18034 3.44922 3.24581C3.1516 3.36486 2.88969 3.53748 2.6635 3.76367C2.43731 3.98986 2.2647 4.25177 2.14565 4.54939C2.08017 4.722 2.02511 4.9348 1.98047 5.18778C1.93583 5.44075 1.90606 5.7473 1.89118 6.10742C1.8763 6.46754 1.86737 6.75474 1.8644 6.96903C1.86142 7.18331 1.86142 7.4973 1.8644 7.91099C1.86737 8.32468 1.86886 8.55236 1.86886 8.59403C1.86886 8.6357 1.86737 8.86337 1.8644 9.27706C1.86142 9.69075 1.86142 10.0047 1.8644 10.219C1.86737 10.4333 1.8763 10.7205 1.89118 11.0806C1.90606 11.4408 1.93583 11.7473 1.98047 12.0003C2.02511 12.2533 2.08017 12.4661 2.14565 12.6387C2.2647 12.9363 2.43731 13.1982 2.6635 13.4244C2.88969 13.6506 3.1516 13.8232 3.44922 13.9422C3.62184 14.0077 3.83464 14.0628 4.08761 14.1074C4.34059 14.1521 4.64714 14.1818 5.00725 14.1967C5.36737 14.2116 5.65458 14.2205 5.86886 14.2235C6.08315 14.2265 6.39714 14.2265 6.81083 14.2235C7.22452 14.2205 7.4522 14.219 7.49386 14.219C7.53553 14.219 7.76321 14.2205 8.1769 14.2235C8.59059 14.2265 8.90458 14.2265 9.11886 14.2235C9.33315 14.2205 9.62035 14.2116 9.98047 14.1967C10.3406 14.1818 10.6471 14.1521 10.9001 14.1074C11.1531 14.0628 11.3659 14.0077 11.5385 13.9422C11.8361 13.8232 12.098 13.6506 12.3242 13.4244C12.5504 13.1982 12.723 12.9363 12.8421 12.6387C12.9076 12.4661 12.9626 12.2533 13.0073 12.0003C13.0519 11.7473 13.0817 11.4408 13.0965 11.0806C13.1114 10.7205 13.1203 10.4333 13.1233 10.219C13.1263 10.0047 13.1263 9.69075 13.1233 9.27706C13.1203 8.86337 13.1189 8.6357 13.1189 8.59403C13.1189 8.55236 13.1203 8.32468 13.1233 7.91099C13.1263 7.4973 13.1263 7.18331 13.1233 6.96903C13.1203 6.75474 13.1114 6.46754 13.0965 6.10742C13.0817 5.7473 13.0519 5.44075 13.0073 5.18778C12.9626 4.9348 12.9076 4.722 12.8421 4.54939C12.723 4.25177 12.5504 3.98986 12.3242 3.76367C12.098 3.53748 11.8361 3.36486 11.5385 3.24581C11.3659 3.18034 11.1531 3.12528 10.9001 3.08064C10.6471 3.03599 10.3406 3.00623 9.98047 2.99135C9.62035 2.97647 9.33315 2.96754 9.11886 2.96456C8.90458 2.96159 8.59059 2.96159 8.1769 2.96456ZM14.3064 5.76367C14.3361 6.28748 14.351 7.23093 14.351 8.59403C14.351 9.95712 14.3361 10.9006 14.3064 11.4244C14.2468 12.6625 13.8778 13.6208 13.1992 14.2994C12.5206 14.978 11.5623 15.347 10.3242 15.4065C9.80041 15.4363 8.85696 15.4512 7.49386 15.4512C6.13077 15.4512 5.18731 15.4363 4.6635 15.4065C3.42541 15.347 2.46708 14.978 1.7885 14.2994C1.10993 13.6208 0.740885 12.6625 0.681362 11.4244C0.6516 10.9006 0.636719 9.95712 0.636719 8.59403C0.636719 7.23093 0.6516 6.28748 0.681362 5.76367C0.740885 4.52558 1.10993 3.56724 1.7885 2.88867C2.46708 2.2101 3.42541 1.84105 4.6635 1.78153C5.18731 1.75177 6.13077 1.73689 7.49386 1.73689C8.85696 1.73689 9.80041 1.75177 10.3242 1.78153C11.5623 1.84105 12.5206 2.2101 13.1992 2.88867C13.8778 3.56724 14.2468 4.52558 14.3064 5.76367Z" fill="#005F9A"/>
</g>
<defs>
<clipPath id="clip0_98_3628">
<rect width="14.33" height="16" fill="white" transform="matrix(1 0 0 -1 0.328125 16.5938)"/>
</clipPath>
</defs>
</svg>
