<svg width="17" height="17" viewBox="0 0 17 17" fill="none" xmlns="http://www.w3.org/2000/svg">
<g clip-path="url(#clip0_98_3632)">
<path d="M6.84463 10.6652L11.1661 8.43304L6.84463 6.17411V10.6652ZM8.49642 2.96875C9.49642 2.96875 10.4622 2.98214 11.3937 3.00893C12.3253 3.03571 13.0083 3.06399 13.4428 3.09375L14.0946 3.12946C14.1006 3.12946 14.1512 3.13393 14.2464 3.14286C14.3417 3.15178 14.4101 3.16071 14.4518 3.16964C14.4934 3.17857 14.5634 3.19196 14.6616 3.20982C14.7598 3.22768 14.8446 3.25149 14.9161 3.28125C14.9875 3.31101 15.0708 3.3497 15.1661 3.39732C15.2613 3.44494 15.3536 3.50298 15.4428 3.57143C15.5321 3.63988 15.6184 3.71875 15.7018 3.80803C15.7375 3.84375 15.7836 3.89881 15.8402 3.97321C15.8967 4.04762 15.983 4.22173 16.0991 4.49553C16.2152 4.76935 16.294 5.06994 16.3357 5.39732C16.3833 5.77827 16.4205 6.18452 16.4473 6.61607C16.4741 7.04762 16.4905 7.38542 16.4964 7.62946V7.98661V9.20089C16.5024 10.064 16.4488 10.9271 16.3357 11.7902C16.294 12.1176 16.2196 12.4137 16.1125 12.6786C16.0053 12.9435 15.9101 13.1265 15.8268 13.2277L15.7018 13.3795C15.6184 13.4687 15.5321 13.5476 15.4428 13.6161C15.3536 13.6845 15.2613 13.7411 15.1661 13.7857C15.0708 13.8304 14.9875 13.8676 14.9161 13.8973C14.8446 13.9271 14.7598 13.9509 14.6616 13.9688C14.5634 13.9866 14.492 14 14.4473 14.0089C14.4027 14.0179 14.3342 14.0268 14.242 14.0357C14.1497 14.0446 14.1006 14.0491 14.0946 14.0491C12.6006 14.1622 10.7345 14.2188 8.49642 14.2188C7.26428 14.2068 6.19433 14.1875 5.2866 14.1607C4.37886 14.1339 3.78213 14.1116 3.49642 14.0938L3.05892 14.058L2.73749 14.0223C2.5232 13.9926 2.361 13.9628 2.25088 13.933C2.14076 13.9033 1.98898 13.8408 1.79553 13.7455C1.60207 13.6503 1.43392 13.5283 1.29106 13.3795C1.25535 13.3437 1.20922 13.2887 1.15267 13.2143C1.09612 13.1399 1.00981 12.9658 0.89374 12.692C0.777668 12.4182 0.698799 12.1176 0.657132 11.7902C0.609513 11.4092 0.572311 11.003 0.545525 10.5714C0.51874 10.1399 0.50237 9.80208 0.496418 9.55804V9.20089V7.98661C0.490466 7.12351 0.544037 6.26042 0.657132 5.39732C0.698799 5.06994 0.773204 4.77381 0.880347 4.50893C0.98749 4.24405 1.08273 4.06101 1.16606 3.95982L1.29106 3.80803C1.37439 3.71875 1.4607 3.63988 1.54999 3.57143C1.63928 3.50298 1.73154 3.44494 1.82678 3.39732C1.92201 3.3497 2.00535 3.31101 2.07678 3.28125C2.1482 3.25149 2.23303 3.22768 2.33124 3.20982C2.42945 3.19196 2.49939 3.17857 2.54106 3.16964C2.58273 3.16071 2.65118 3.15178 2.74642 3.14286C2.84166 3.13393 2.89225 3.12946 2.8982 3.12946C4.39225 3.02232 6.25832 2.96875 8.49642 2.96875Z" fill="#005F9A"/>
</g>
<defs>
<clipPath id="clip0_98_3632">
<rect width="16.61" height="16" fill="white" transform="matrix(1 0 0 -1 0.191406 16.5938)"/>
</clipPath>
</defs>
</svg>
